<svg width="600" height="450" viewBox="0 0 600 450" fill="none" xmlns="http://www.w3.org/2000/svg">
  <!-- Main Device Background -->
  <rect width="600" height="450" rx="20" fill="#1F2937"/>
  <rect x="10" y="10" width="580" height="430" rx="15" fill="#111827"/>
  
  <!-- Screen -->
  <rect x="30" y="30" width="540" height="390" rx="10" fill="#F9FAFB"/>
  
  <!-- Header Bar -->
  <rect x="30" y="30" width="540" height="60" rx="10" fill="#4F46E5"/>
  <circle cx="60" cy="60" r="15" fill="#FFFFFF" opacity="0.3"/>
  <rect x="90" y="50" width="120" height="8" rx="4" fill="#FFFFFF" opacity="0.5"/>
  <rect x="90" y="65" width="80" height="6" rx="3" fill="#FFFFFF" opacity="0.3"/>
  
  <!-- Search Bar -->
  <rect x="400" y="50" width="150" height="20" rx="10" fill="#FFFFFF" opacity="0.2"/>
  <circle cx="540" cy="60" r="8" fill="#FFFFFF" opacity="0.3"/>
  
  <!-- Sidebar -->
  <rect x="30" y="100" width="120" height="320" rx="8" fill="#E5E7EB"/>
  
  <!-- Menu Items -->
  <rect x="40" y="110" width="100" height="35" rx="6" fill="#4F46E5"/>
  <rect x="40" y="155" width="100" height="35" rx="6" fill="#D1D5DB"/>
  <rect x="40" y="200" width="100" height="35" rx="6" fill="#D1D5DB"/>
  <rect x="40" y="245" width="100" height="35" rx="6" fill="#D1D5DB"/>
  <rect x="40" y="290" width="100" height="35" rx="6" fill="#D1D5DB"/>
  
  <!-- Main Content Area -->
  <g id="dashboard-content">
    <!-- Stats Cards -->
    <rect x="170" y="110" width="130" height="100" rx="8" fill="#FFFFFF"/>
    <rect x="170" y="110" width="130" height="8" rx="4" fill="#10B981"/>
    <rect x="180" y="130" width="80" height="12" rx="6" fill="#E5E7EB"/>
    <rect x="180" y="150" width="100" height="20" rx="6" fill="#6B7280"/>
    <text x="185" y="166" font-family="Arial" font-size="18" font-weight="bold" fill="#1F2937">$24,500</text>
    <rect x="180" y="180" width="60" height="8" rx="4" fill="#D1D5DB"/>
    
    <rect x="320" y="110" width="130" height="100" rx="8" fill="#FFFFFF"/>
    <rect x="320" y="110" width="130" height="8" rx="4" fill="#4F46E5"/>
    <rect x="330" y="130" width="80" height="12" rx="6" fill="#E5E7EB"/>
    <rect x="330" y="150" width="90" height="20" rx="6" fill="#6B7280"/>
    <text x="335" y="166" font-family="Arial" font-size="18" font-weight="bold" fill="#1F2937">1,247</text>
    <rect x="330" y="180" width="60" height="8" rx="4" fill="#D1D5DB"/>
    
    <rect x="470" y="110" width="80" height="100" rx="8" fill="#FFFFFF"/>
    <rect x="470" y="110" width="80" height="8" rx="4" fill="#F59E0B"/>
    <rect x="480" y="130" width="60" height="12" rx="6" fill="#E5E7EB"/>
    <text x="485" y="166" font-family="Arial" font-size="18" font-weight="bold" fill="#1F2937">98.5%</text>
    <rect x="480" y="180" width="50" height="8" rx="4" fill="#D1D5DB"/>
    
    <!-- Chart Area -->
    <rect x="170" y="230" width="380" height="180" rx="8" fill="#FFFFFF"/>
    <text x="180" y="250" font-family="Arial" font-size="14" font-weight="bold" fill="#1F2937">Sales Overview</text>
    
    <!-- Bar Chart -->
    <rect x="190" y="350" width="30" height="40" rx="4" fill="#4F46E5" opacity="0.3"/>
    <rect x="230" y="330" width="30" height="60" rx="4" fill="#4F46E5" opacity="0.5"/>
    <rect x="270" y="310" width="30" height="80" rx="4" fill="#4F46E5" opacity="0.7"/>
    <rect x="310" y="290" width="30" height="100" rx="4" fill="#4F46E5"/>
    <rect x="350" y="320" width="30" height="70" rx="4" fill="#4F46E5" opacity="0.6"/>
    <rect x="390" y="340" width="30" height="50" rx="4" fill="#4F46E5" opacity="0.4"/>
    <rect x="430" y="360" width="30" height="30" rx="4" fill="#4F46E5" opacity="0.3"/>
    <rect x="470" y="325" width="30" height="65" rx="4" fill="#4F46E5" opacity="0.5"/>
  </g>
  
  <!-- Icons -->
  <g id="icons">
    <!-- Dashboard icon -->
    <circle cx="90" cy="127.5" r="6" fill="#FFFFFF"/>
    <!-- Sales icon -->
    <rect x="86" y="170" width="8" height="8" rx="2" fill="#6B7280"/>
    <!-- Inventory icon -->
    <rect x="86" y="215" width="8" height="8" rx="2" fill="#6B7280"/>
    <!-- Reports icon -->
    <rect x="86" y="260" width="8" height="8" rx="2" fill="#6B7280"/>
    <!-- Settings icon -->
    <circle cx="90" cy="307.5" r="6" fill="#6B7280"/>
  </g>
  
  <!-- Decorative Elements -->
  <circle cx="550" cy="390" r="20" fill="#10B981" opacity="0.2"/>
  <circle cx="530" cy="370" r="15" fill="#4F46E5" opacity="0.15"/>
  <circle cx="570" cy="360" r="12" fill="#F59E0B" opacity="0.2"/>
</svg>
